<svg xmlns="http://www.w3.org/2000/svg" xmlns:xlink="http://www.w3.org/1999/xlink" width="500" zoomAndPan="magnify" viewBox="0 0 375 374.999991" height="500" preserveAspectRatio="xMidYMid meet" version="1.0"><defs><g/><clipPath id="fe55f03caa"><path d="M 138.707031 121 L 231 121 L 231 187.847656 L 138.707031 187.847656 Z M 138.707031 121 " clip-rule="nonzero"/></clipPath><clipPath id="05ff546d73"><path d="M 212 146 L 236.207031 146 L 236.207031 164 L 212 164 Z M 212 146 " clip-rule="nonzero"/></clipPath></defs><g clip-path="url(#fe55f03caa)"><path fill="#000000" d="M 220.929688 187.738281 L 148.121094 187.738281 C 142.933594 187.738281 138.707031 183.496094 138.707031 178.28125 L 138.707031 131.390625 C 138.707031 126.179688 142.933594 121.933594 148.121094 121.933594 L 220.929688 121.933594 C 226.109375 121.933594 230.324219 126.179688 230.324219 131.390625 L 230.324219 147.550781 L 227.691406 147.550781 L 227.691406 131.390625 C 227.691406 127.636719 224.652344 124.582031 220.929688 124.582031 L 148.121094 124.582031 C 144.386719 124.582031 141.34375 127.636719 141.34375 131.390625 L 141.34375 178.28125 C 141.34375 182.035156 144.386719 185.089844 148.121094 185.089844 L 220.929688 185.089844 C 224.652344 185.089844 227.691406 182.035156 227.691406 178.28125 L 227.691406 162.117188 L 230.324219 162.117188 L 230.324219 178.28125 C 230.324219 183.496094 226.109375 187.738281 220.929688 187.738281 " fill-opacity="1" fill-rule="nonzero"/></g><g clip-path="url(#05ff546d73)"><path fill="#000000" d="M 216.441406 148.875 C 215.730469 148.875 215.152344 149.460938 215.152344 150.171875 L 215.152344 159.496094 C 215.152344 159.785156 215.246094 160.0625 215.425781 160.289062 C 215.679688 160.621094 216.039062 160.796875 216.441406 160.796875 L 232.296875 160.796875 C 233.003906 160.796875 233.574219 160.210938 233.574219 159.496094 L 233.574219 150.171875 C 233.574219 149.460938 233.003906 148.875 232.296875 148.875 Z M 232.296875 163.441406 L 216.441406 163.441406 C 215.226562 163.441406 214.097656 162.890625 213.351562 161.917969 C 212.816406 161.238281 212.519531 160.375 212.519531 159.496094 L 212.519531 150.171875 C 212.519531 148 214.277344 146.226562 216.441406 146.226562 L 232.296875 146.226562 C 234.453125 146.226562 236.207031 148 236.207031 150.171875 L 236.207031 159.496094 C 236.207031 161.675781 234.453125 163.441406 232.296875 163.441406 " fill-opacity="1" fill-rule="nonzero"/></g><path fill="#000000" d="M 224.359375 153.683594 C 223.734375 153.683594 223.21875 154.203125 223.21875 154.839844 C 223.21875 155.46875 223.734375 155.984375 224.359375 155.984375 C 224.992188 155.984375 225.507812 155.46875 225.507812 154.839844 C 225.507812 154.203125 224.992188 153.683594 224.359375 153.683594 Z M 224.359375 158.632812 C 222.277344 158.632812 220.582031 156.933594 220.582031 154.839844 C 220.582031 152.742188 222.277344 151.035156 224.359375 151.035156 C 226.445312 151.035156 228.144531 152.742188 228.144531 154.839844 C 228.144531 156.933594 226.445312 158.632812 224.359375 158.632812 " fill-opacity="1" fill-rule="nonzero"/><path fill="#000000" d="M 158.074219 124.398438 L 156.726562 122.121094 L 192.835938 100.589844 C 197.304688 97.949219 203.085938 99.4375 205.730469 103.910156 L 216.757812 122.585938 L 214.496094 123.933594 L 203.464844 105.261719 C 201.5625 102.039062 197.390625 100.96875 194.179688 102.871094 L 158.074219 124.398438 " fill-opacity="1" fill-rule="nonzero"/><path fill="#000000" d="M 186.371094 124.398438 L 185.039062 122.113281 L 207.246094 109.050781 L 208.574219 111.335938 L 186.371094 124.398438 " fill-opacity="1" fill-rule="nonzero"/><g fill="#000000" fill-opacity="1"><g transform="translate(105.944496, 238.31102)"><g><path d="M 13.648438 -12.285156 C 18.792969 -13.019531 21.558594 -15.257812 21.558594 -18.476562 C 21.558594 -21.558594 18.96875 -23.621094 12.003906 -23.621094 L 1.121094 -23.621094 L 1.121094 -23.410156 L 3.007812 -21.59375 L 3.007812 -2.03125 L 1.121094 -0.210938 L 1.121094 0 L 11.339844 0 C 19.074219 0 22.78125 -3.675781 22.78125 -7.035156 C 22.78125 -10.078125 20.613281 -12.738281 13.613281 -12.039062 Z M 10.882812 -23.027344 C 14.382812 -23.027344 14.699219 -20.4375 14.699219 -17.707031 C 14.699219 -14.277344 13.964844 -12.492188 10.8125 -12.457031 L 9.761719 -12.457031 L 9.761719 -23.027344 Z M 10.882812 -0.59375 C 10.113281 -0.558594 10.042969 -0.59375 9.761719 -0.628906 L 9.761719 -11.828125 L 10.917969 -11.828125 C 13.824219 -11.828125 15.46875 -10.5 15.46875 -6.335938 C 15.46875 -2.378906 13.964844 -0.699219 10.882812 -0.59375 Z M 10.882812 -0.59375 "/></g></g></g><g fill="#000000" fill-opacity="1"><g transform="translate(134.184118, 238.31102)"><g><path d="M 21.59375 -23.621094 L 12.878906 -23.621094 L 12.878906 -23.410156 L 14.769531 -21.59375 L 14.734375 -4.757812 C 14.03125 -3.953125 13.191406 -3.394531 12.039062 -3.394531 C 10.078125 -3.394531 9.378906 -5.144531 9.378906 -7.945312 L 9.378906 -23.621094 L 0.699219 -23.621094 L 0.699219 -23.410156 L 2.554688 -21.59375 L 2.519531 -6.71875 C 2.519531 -1.679688 5.039062 0.523438 8.957031 0.523438 C 9.902344 0.523438 11.375 -0.699219 14.734375 -3.882812 L 14.734375 0 L 23.410156 0 L 23.410156 -0.210938 L 21.558594 -2.03125 Z M 21.59375 -23.621094 "/></g></g></g><g fill="#000000" fill-opacity="1"><g transform="translate(163.158577, 238.31102)"><g><path d="M 9.867188 -23.621094 L 1.121094 -23.621094 L 1.121094 -23.410156 L 3.007812 -21.59375 L 3.007812 -2.03125 L 1.121094 -0.210938 L 1.121094 0 L 9.9375 0 C 19.945312 0 22.816406 -6.789062 22.816406 -12.386719 C 22.816406 -19.914062 18.441406 -23.621094 9.867188 -23.621094 Z M 9.832031 -0.699219 L 9.832031 -22.992188 L 10.007812 -22.992188 C 14.453125 -22.992188 15.609375 -19.667969 15.609375 -11.828125 C 15.609375 -3.570312 14.382812 -0.699219 10.5 -0.699219 Z M 9.832031 -0.699219 "/></g></g></g><g fill="#000000" fill-opacity="1"><g transform="translate(191.573156, 238.31102)"><g><path d="M 9.730469 -12.597656 L 9.730469 -12.386719 L 14.90625 -10.988281 L 14.90625 -4.339844 C 14.804688 -4.304688 14.699219 -4.304688 14.558594 -4.304688 C 10.113281 -4.304688 6.160156 -12.109375 6.160156 -18.265625 C 6.160156 -20.996094 7.3125 -22.328125 8.820312 -22.328125 C 11.652344 -22.328125 14.59375 -17.953125 15.222656 -14.277344 L 15.398438 -14.242188 L 21.3125 -19.667969 C 20.085938 -21.976562 16.972656 -24.113281 12.632812 -24.113281 C 10.988281 -24.113281 0.875 -22.464844 0.875 -11.722656 C 0.875 -5.074219 5.425781 0.351562 11.898438 0.421875 C 12.632812 0.421875 14.101562 -1.890625 15.851562 -4.339844 L 16.0625 -4.339844 L 21.03125 0.558594 L 21.277344 0.558594 L 21.417969 -12.421875 L 21.242188 -12.597656 Z M 9.730469 -12.597656 "/></g></g></g><g fill="#000000" fill-opacity="1"><g transform="translate(219.322891, 238.31102)"><g><path d="M 20.402344 -9.9375 C 19.632812 -8.785156 19.003906 -7.769531 18.441406 -6.894531 C 15.292969 -1.820312 14.488281 -0.628906 10.394531 -0.628906 L 9.832031 -0.628906 L 9.832031 -11.617188 L 10.183594 -11.617188 C 12.074219 -11.617188 13.472656 -10.777344 15.679688 -6.789062 L 15.886719 -6.789062 L 15.886719 -17.042969 L 15.679688 -17.042969 C 13.4375 -12.773438 12.074219 -12.214844 10.183594 -12.214844 L 9.832031 -12.214844 L 9.832031 -22.992188 L 10.183594 -22.992188 C 14.277344 -22.992188 15.082031 -21.800781 18.230469 -16.726562 L 20.191406 -13.683594 L 20.402344 -13.683594 L 20.402344 -23.621094 L 1.121094 -23.621094 L 1.121094 -23.410156 L 3.007812 -21.59375 L 3.007812 -2.03125 L 1.121094 -0.210938 L 1.121094 0 L 20.613281 0 L 20.613281 -9.9375 Z M 20.402344 -9.9375 "/></g></g></g><g fill="#000000" fill-opacity="1"><g transform="translate(246.7227, 238.31102)"><g><path d="M 21.453125 -23.621094 L 1.050781 -23.621094 L 1.050781 -13.683594 L 1.261719 -13.683594 C 6.613281 -22.957031 6.648438 -22.992188 7.417969 -22.992188 L 7.804688 -22.992188 L 7.804688 -2.167969 L 5.984375 -0.210938 L 5.984375 0 L 16.449219 0 L 16.449219 -0.210938 L 14.628906 -2.167969 L 14.628906 -22.992188 L 15.082031 -22.992188 C 15.679688 -22.992188 15.851562 -22.957031 21.242188 -13.683594 L 21.453125 -13.683594 Z M 21.453125 -23.621094 "/></g></g></g><g fill="#000000" fill-opacity="1"><g transform="translate(126.281427, 264.711076)"><g><path d="M 5.824219 0 L 5.824219 -10.878906 L 9.964844 -10.878906 L 9.964844 -12.207031 L 0.222656 -12.207031 L 0.222656 -10.878906 L 4.351562 -10.878906 L 4.351562 0 Z M 5.824219 0 "/></g></g></g><g fill="#000000" fill-opacity="1"><g transform="translate(144.48697, 264.711076)"><g><path d="M 7.488281 -5.421875 C 8.863281 -5.917969 9.679688 -7.070312 9.679688 -8.71875 C 9.679688 -11.070312 8.144531 -12.207031 5.808594 -12.207031 L 1.265625 -12.207031 L 1.265625 0 L 2.734375 0 L 2.734375 -5.152344 L 6.0625 -5.152344 L 8.222656 0 L 9.839844 0 Z M 2.734375 -6.464844 L 2.734375 -10.878906 L 5.613281 -10.878906 C 7.261719 -10.878906 8.222656 -10.078125 8.222656 -8.671875 C 8.222656 -7.246094 7.292969 -6.464844 5.613281 -6.464844 Z M 2.734375 -6.464844 "/></g></g></g><g fill="#000000" fill-opacity="1"><g transform="translate(163.060418, 264.711076)"><g><path d="M 1.710938 0 L 2.785156 -2.992188 L 8.320312 -2.992188 L 9.390625 0 L 10.878906 0 L 6.382812 -12.207031 L 4.71875 -12.207031 L 0.222656 0 Z M 5.550781 -10.703125 L 7.824219 -4.304688 L 3.28125 -4.304688 Z M 5.550781 -10.703125 "/></g></g></g><g fill="#000000" fill-opacity="1"><g transform="translate(182.177732, 264.711076)"><g><path d="M 6.429688 0.160156 C 9.152344 0.160156 10.925781 -1.328125 11.308594 -3.695312 L 9.710938 -3.695312 C 9.40625 -2.015625 8.160156 -1.152344 6.398438 -1.152344 C 3.679688 -1.152344 2.273438 -3.246094 2.273438 -6.109375 C 2.273438 -8.957031 3.679688 -11.054688 6.398438 -11.054688 C 8.160156 -11.054688 9.40625 -10.191406 9.710938 -8.832031 L 11.308594 -8.832031 C 10.941406 -10.910156 9.152344 -12.367188 6.429688 -12.367188 C 2.574219 -12.367188 0.800781 -9.421875 0.800781 -6.109375 C 0.800781 -2.800781 2.574219 0.160156 6.429688 0.160156 Z M 6.429688 0.160156 "/></g></g></g><g fill="#000000" fill-opacity="1"><g transform="translate(202.158852, 264.711076)"><g><path d="M 2.734375 0 L 2.734375 -5.933594 L 8.03125 0 L 9.984375 0 L 4.269531 -6.351562 L 9.695312 -12.207031 L 7.808594 -12.207031 L 2.734375 -6.605469 L 2.734375 -12.207031 L 1.265625 -12.207031 L 1.265625 0 Z M 2.734375 0 "/></g></g></g><g fill="#000000" fill-opacity="1"><g transform="translate(220.284415, 264.711076)"><g><path d="M 9.152344 0 L 9.152344 -1.328125 L 2.734375 -1.328125 L 2.734375 -5.472656 L 8.398438 -5.472656 L 8.398438 -6.78125 L 2.734375 -6.78125 L 2.734375 -10.878906 L 9.152344 -10.878906 L 9.152344 -12.207031 L 1.265625 -12.207031 L 1.265625 0 Z M 9.152344 0 "/></g></g></g><g fill="#000000" fill-opacity="1"><g transform="translate(238.154043, 264.711076)"><g><path d="M 7.488281 -5.421875 C 8.863281 -5.917969 9.679688 -7.070312 9.679688 -8.71875 C 9.679688 -11.070312 8.144531 -12.207031 5.808594 -12.207031 L 1.265625 -12.207031 L 1.265625 0 L 2.734375 0 L 2.734375 -5.152344 L 6.0625 -5.152344 L 8.222656 0 L 9.839844 0 Z M 2.734375 -6.464844 L 2.734375 -10.878906 L 5.613281 -10.878906 C 7.261719 -10.878906 8.222656 -10.078125 8.222656 -8.671875 C 8.222656 -7.246094 7.292969 -6.464844 5.613281 -6.464844 Z M 2.734375 -6.464844 "/></g></g></g></svg>